<svg width="161" height="32" viewBox="0 0 161 32" fill="none" xmlns="http://www.w3.org/2000/svg">
<g id="Layer_1" clip-path="url(#clip0_2_356)">
<g id="Group">
<path id="Vector" d="M16.1035 31.1739C24.5059 31.1739 31.3174 24.3376 31.3174 15.9046C31.3174 7.47157 24.5059 0.635254 16.1035 0.635254C7.70104 0.635254 0.889526 7.47157 0.889526 15.9046C0.889526 24.3376 7.70104 31.1739 16.1035 31.1739Z" fill="url(#paint0_linear_2_356)"/>
<path id="Vector_2" d="M21.4914 21.6228C21.2513 21.6228 21.0198 21.4937 20.8997 21.267L16.1028 12.2868L11.3059 21.267C11.1316 21.5941 10.7256 21.7175 10.3997 21.5425C10.0738 21.3675 9.95091 20.96 10.1253 20.633L15.5111 10.5452C15.6283 10.3272 15.8541 10.1895 16.1028 10.1895C16.3515 10.1895 16.5774 10.3272 16.6946 10.5452L22.0803 20.633C22.2547 20.96 22.1318 21.3675 21.8059 21.5425C21.7058 21.597 21.5972 21.6228 21.4886 21.6228H21.4914Z" fill="white"/>
</g>
<g id="Group_2">
<path id="Vector_3" d="M152.241 7.09364H160.054C160.371 7.09364 160.631 6.83542 160.631 6.51408C160.631 6.19274 160.374 5.93452 160.054 5.93452H150.786C150.549 5.93452 150.337 6.07798 150.252 6.2989C150.163 6.51982 150.22 6.7723 150.392 6.93297L158.602 14.6824H150.789C150.472 14.6824 150.212 14.9406 150.212 15.262C150.212 15.5833 150.469 15.8415 150.789 15.8415H160.057C160.294 15.8415 160.506 15.6952 160.594 15.4771C160.68 15.2562 160.626 15.0037 160.454 14.8431L152.244 7.09364H152.241ZM67.421 5.70212C67.2009 5.61318 66.9493 5.67056 66.7892 5.84271L59.0679 14.0828V6.24151C59.0679 5.92305 58.8106 5.66196 58.4904 5.66196C58.1703 5.66196 57.913 5.92018 57.913 6.24151V15.5431C57.913 15.7813 58.0588 15.9936 58.276 16.0825C58.3447 16.1112 58.4161 16.1227 58.4876 16.1227C58.6448 16.1227 58.7963 16.0596 58.9078 15.9391L66.6291 7.69902V15.5403C66.6291 15.8587 66.8864 16.1198 67.2066 16.1198C67.5268 16.1198 67.784 15.8616 67.784 15.5403V6.23865C67.784 6.00051 67.6382 5.7882 67.421 5.69926V5.70212ZM100.385 6.31324C100.284 6.12388 100.09 6.00912 99.8757 6.00912C99.6613 6.00912 99.4669 6.12675 99.3668 6.31324L94.7329 14.9923C94.5814 15.2734 94.6872 15.6235 94.9673 15.7755C95.0531 15.8214 95.1474 15.8444 95.2389 15.8444C95.4447 15.8444 95.6448 15.7325 95.7477 15.5403L99.8728 7.81378L103.998 15.5403C104.149 15.8214 104.498 15.9276 104.778 15.7755C105.058 15.6235 105.164 15.2734 105.013 14.9923L100.379 6.31324H100.385ZM44.8002 6.31324C44.7001 6.12388 44.5057 6.00912 44.2913 6.00912C44.0769 6.00912 43.8825 6.12675 43.7825 6.31324L39.1485 14.9923C38.997 15.2734 39.1028 15.6235 39.383 15.7755C39.6631 15.9276 40.0119 15.8214 40.1634 15.5403L44.2885 7.81378L48.4136 15.5403C48.5165 15.7354 48.7166 15.8444 48.9224 15.8444C49.0139 15.8444 49.1082 15.8214 49.194 15.7755C49.4741 15.6235 49.5799 15.2734 49.4284 14.9923L44.7945 6.31324H44.8002ZM86.0425 5.93739H76.7746C76.4573 5.93739 76.1972 6.19561 76.1972 6.51695C76.1972 6.83829 76.4544 7.09651 76.7746 7.09651H81.1141V15.2419C81.1141 15.5603 81.3714 15.8214 81.6916 15.8214C82.0117 15.8214 82.269 15.5632 82.269 15.2419V7.09651H86.0453C86.3627 7.09651 86.6228 6.83829 86.6228 6.51695C86.6228 6.19561 86.3655 5.93739 86.0453 5.93739H86.0425ZM141.518 5.93739H132.25C131.933 5.93739 131.673 6.19561 131.673 6.51695C131.673 6.83829 131.93 7.09651 132.25 7.09651H141.518C141.836 7.09651 142.096 6.83829 142.096 6.51695C142.096 6.19561 141.838 5.93739 141.518 5.93739ZM132.25 11.492H136.884C137.202 11.492 137.462 11.2337 137.462 10.9124C137.462 10.5911 137.204 10.3328 136.884 10.3328H132.25C131.933 10.3328 131.673 10.5911 131.673 10.9124C131.673 11.2337 131.93 11.492 132.25 11.492ZM123.283 8.7032C123.283 7.17684 122.048 5.93739 120.527 5.93739C120.527 5.93739 120.527 5.93739 120.524 5.93739H113.989C113.672 5.93739 113.412 6.19561 113.412 6.51695C113.412 6.83829 113.669 7.09651 113.989 7.09651H120.527C121.41 7.09651 122.128 7.81952 122.128 8.70607C122.128 9.59262 121.41 10.3156 120.524 10.3156H118.346H113.989C113.672 10.3156 113.412 10.5739 113.412 10.8952V15.2706C113.412 15.589 113.669 15.8501 113.989 15.8501C114.309 15.8501 114.566 15.5919 114.566 15.2706V11.4747H118.108L122.299 15.6808C122.411 15.7927 122.559 15.8501 122.708 15.8501C122.857 15.8501 123.002 15.7927 123.117 15.6808C123.343 15.4542 123.343 15.0898 123.117 14.8632L119.744 11.4776H120.533C122.053 11.4776 123.288 10.2382 123.288 8.71181L123.283 8.7032ZM141.518 14.6623H132.25C131.933 14.6623 131.673 14.9205 131.673 15.2419C131.673 15.5632 131.93 15.8214 132.25 15.8214H141.518C141.836 15.8214 142.096 15.5632 142.096 15.2419C142.096 14.9205 141.838 14.6623 141.518 14.6623Z" fill="url(#paint1_linear_2_356)"/>
<g id="Group_3">
<path id="Vector_4" d="M39.0796 26.0101V20.8687H39.314V26.0101H39.0796Z" fill="#231F20"/>
<path id="Vector_5" d="M40.4515 26.0101V20.8687H40.7145L43.5189 25.8006H43.4074V20.8687H43.6361V26.0101H43.3731L40.5687 21.0781H40.6802V26.0101H40.4515Z" fill="#231F20"/>
<path id="Vector_6" d="M45.7804 26.0101V21.0982H44.231V20.8687H47.567V21.0982H46.0176V26.0101H45.7832H45.7804Z" fill="#231F20"/>
<path id="Vector_7" d="M48.1614 26.0101V20.8687H50.7142V21.0982H48.3958V25.7805H50.7485V26.0101H48.1586H48.1614ZM48.3701 23.4795V23.25H50.4055V23.4795H48.3701Z" fill="#231F20"/>
<path id="Vector_8" d="M51.4373 26.0096V20.9112C51.5402 20.894 51.6488 20.8796 51.7574 20.8653C51.8661 20.851 51.9804 20.8395 52.1005 20.8337C52.2205 20.8251 52.3492 20.8223 52.4893 20.8223C53.0638 20.8223 53.4927 20.9428 53.7728 21.1866C54.053 21.4276 54.193 21.7892 54.193 22.2683C54.193 22.5954 54.1216 22.8679 53.9786 23.086C53.8357 23.304 53.6213 23.4704 53.3383 23.5795C53.0553 23.6885 52.7008 23.7459 52.2748 23.7459C52.1405 23.7459 52.029 23.7459 51.9347 23.7401C51.8432 23.7373 51.7546 23.7315 51.6717 23.7229V26.0096H51.4373ZM52.252 23.5221C52.8523 23.5221 53.2868 23.4188 53.5527 23.2122C53.8214 23.0056 53.9558 22.69 53.9558 22.2626C53.9558 21.99 53.9043 21.7633 53.8043 21.5826C53.7042 21.4047 53.5441 21.2698 53.3268 21.1809C53.1096 21.092 52.8209 21.0461 52.4664 21.0461C52.3149 21.0461 52.1777 21.0518 52.0519 21.0604C51.9289 21.0719 51.8003 21.0862 51.6688 21.1063V23.4963C51.746 23.502 51.8175 23.5049 51.8803 23.5077C51.9432 23.5106 52.0033 23.5135 52.0633 23.5135C52.1205 23.5135 52.1862 23.5135 52.252 23.5135V23.5221ZM54.3102 26.0096L52.5836 23.5852H52.8723L54.6104 26.0096H54.3131H54.3102Z" fill="#231F20"/>
<path id="Vector_9" d="M54.8418 26.0101L56.5599 20.8687H56.8572L58.5752 26.0101H58.318L56.6628 21.0092H56.7457L55.0905 26.0101H54.8418ZM55.6022 24.1739L55.6708 23.9443H57.7405L57.8091 24.1739H55.6022Z" fill="#231F20"/>
<path id="Vector_10" d="M60.8571 26.0724C60.5741 26.0724 60.3168 26.0294 60.0881 25.9404C59.8594 25.8515 59.665 25.708 59.5021 25.5072C59.3392 25.3064 59.2162 25.0367 59.1305 24.6981C59.0447 24.3624 59.0018 23.9435 59.0018 23.4472C59.0018 22.793 59.0762 22.2709 59.2277 21.8864C59.3792 21.5019 59.5936 21.2236 59.8795 21.0572C60.1625 20.8908 60.5055 20.8076 60.9057 20.8076C61.0544 20.8076 61.2087 20.8191 61.3631 20.842C61.5175 20.865 61.6718 20.8994 61.8176 20.9453V21.1806C61.6461 21.1203 61.4832 21.0802 61.3345 21.063C61.1859 21.0458 61.0315 21.0343 60.8771 21.0343C60.5284 21.0343 60.2339 21.106 59.9909 21.2523C59.748 21.3987 59.565 21.6425 59.4392 21.9926C59.3134 22.3397 59.2505 22.8217 59.2505 23.4328C59.2505 24.044 59.3163 24.5489 59.4449 24.8989C59.5736 25.249 59.7594 25.4929 59.9967 25.6334C60.2339 25.774 60.5198 25.8429 60.8485 25.8429C61.0144 25.8429 61.1744 25.8285 61.3259 25.7998C61.4775 25.7712 61.6433 25.7253 61.8176 25.6621V25.8974C61.6833 25.9462 61.5346 25.9863 61.3745 26.0208C61.2116 26.0552 61.0401 26.0724 60.8543 26.0724H60.8571Z" fill="#231F20"/>
<path id="Vector_11" d="M63.4615 26.0101V21.0982H61.9121V20.8687H65.2482V21.0982H63.6988V26.0101H63.4644H63.4615Z" fill="#231F20"/>
<path id="Vector_12" d="M65.8428 26.0101V20.8687H66.0772V26.0101H65.8428Z" fill="#231F20"/>
<path id="Vector_13" d="M68.381 26.0101L66.6772 20.8687H66.9345L68.5754 25.8695H68.5211L70.1677 20.8687H70.4107L68.7069 26.0101H68.381Z" fill="#231F20"/>
<path id="Vector_14" d="M71.0134 26.0101V20.8687H73.5662V21.0982H71.2478V25.7805H73.6005V26.0101H71.0105H71.0134ZM71.2192 23.4795V23.25H73.2546V23.4795H71.2192Z" fill="#231F20"/>
<path id="Vector_15" d="M76.5856 26.0439C76.497 26.0439 76.4112 26.0439 76.3255 26.0382C76.2397 26.0353 76.1454 26.0296 76.0482 26.0209C75.951 26.0152 75.8424 26.0037 75.7223 25.9923V20.9053C75.8223 20.8881 75.9253 20.8738 76.031 20.8594C76.1368 20.8451 76.2454 20.8336 76.3569 20.8279C76.4655 20.8193 76.5742 20.8164 76.6828 20.8164C77.3946 20.8164 77.9263 21.0287 78.2808 21.4505C78.6353 21.8722 78.8125 22.535 78.8125 23.4359C78.8125 24.0527 78.7268 24.5548 78.5581 24.9364C78.3895 25.318 78.1379 25.5992 77.8063 25.7742C77.4747 25.9521 77.0687 26.041 76.5828 26.041L76.5856 26.0439ZM76.5913 25.8144C77.0316 25.8144 77.3975 25.7369 77.6891 25.5791C77.9807 25.4213 78.2008 25.1688 78.3437 24.8188C78.4866 24.4688 78.561 24.0097 78.561 23.4388C78.561 22.8678 78.4952 22.4231 78.3609 22.0702C78.2265 21.7173 78.0207 21.4591 77.7405 21.2955C77.4604 21.132 77.103 21.0488 76.6657 21.0488C76.5542 21.0488 76.4398 21.0545 76.3169 21.0631C76.1968 21.0718 76.0739 21.0861 75.951 21.1062V25.7828C76.0653 25.7972 76.174 25.8058 76.2769 25.8115C76.3769 25.8172 76.4827 25.8172 76.5885 25.8172L76.5913 25.8144Z" fill="#231F20"/>
<path id="Vector_16" d="M79.7224 26.0101V20.8687H79.9568V26.0101H79.7224Z" fill="#231F20"/>
<path id="Vector_17" d="M83.0574 26.0441C82.58 26.0441 82.1798 25.9609 81.8539 25.7974C81.528 25.6339 81.2822 25.3613 81.1135 24.9826C80.9477 24.6039 80.8619 24.0903 80.8619 23.4447C80.8619 22.7992 80.9448 22.2627 81.1078 21.8782C81.2707 21.4938 81.5051 21.2183 81.8082 21.0519C82.1112 20.8855 82.4714 20.8052 82.8887 20.8052C83.046 20.8052 83.2061 20.8167 83.3747 20.8396C83.5405 20.8626 83.6978 20.897 83.8464 20.9429V21.1782C83.6749 21.1236 83.5062 21.0835 83.349 21.0634C83.1889 21.0433 83.0317 21.0318 82.8716 21.0318C82.5057 21.0318 82.1912 21.1036 81.9282 21.2499C81.6652 21.3962 81.4651 21.643 81.325 21.9901C81.185 22.3401 81.1135 22.825 81.1135 23.4419C81.1135 24.0587 81.185 24.5178 81.3279 24.8621C81.4708 25.2064 81.6881 25.4502 81.974 25.5937C82.2627 25.7372 82.6229 25.8089 83.0574 25.8089C83.1803 25.8089 83.2975 25.8031 83.4119 25.7917C83.5262 25.7802 83.6377 25.763 83.7492 25.74L83.672 25.8663V23.505H83.9064V25.9581C83.7378 25.9896 83.5891 26.0097 83.4576 26.0212C83.3261 26.0355 83.1918 26.0413 83.0546 26.0413L83.0574 26.0441Z" fill="#231F20"/>
<path id="Vector_18" d="M84.918 26.0101V20.8687H85.1524V26.0101H84.918Z" fill="#231F20"/>
<path id="Vector_19" d="M87.3007 26.0101V21.0982H85.7513V20.8687H89.0874V21.0982H87.538V26.0101H87.3036H87.3007Z" fill="#231F20"/>
<path id="Vector_20" d="M89.204 26.0101L90.9221 20.8687H91.2194L92.9374 26.0101H92.6801L91.025 21.0092H91.1079L89.4527 26.0101H89.204ZM89.9673 24.1739L90.0359 23.9443H92.1055L92.1742 24.1739H89.9673Z" fill="#231F20"/>
<path id="Vector_21" d="M93.5919 26.0101V20.8687H93.8263V25.7805H96.0904V26.0101H93.5919Z" fill="#231F20"/>
<path id="Vector_22" d="M98.1055 26.0101V20.8687H98.3399V25.7805H100.604V26.0101H98.1055Z" fill="#231F20"/>
<path id="Vector_23" d="M102.197 26.0101V21.0982H100.647V20.8687H103.984V21.0982H102.434V26.0101H102.2H102.197Z" fill="#231F20"/>
<path id="Vector_24" d="M105.444 26.0439C105.355 26.0439 105.269 26.0439 105.181 26.0382C105.095 26.0353 105.004 26.0296 104.904 26.0209C104.806 26.0152 104.695 26.0037 104.578 25.9923V20.9053C104.678 20.8881 104.781 20.8738 104.886 20.8594C104.992 20.8451 105.101 20.8336 105.212 20.8279C105.321 20.8193 105.432 20.8164 105.538 20.8164C106.25 20.8164 106.782 21.0287 107.136 21.4505C107.491 21.8722 107.668 22.535 107.668 23.4359C107.668 24.0527 107.582 24.5548 107.413 24.9364C107.245 25.318 106.993 25.5992 106.662 25.7742C106.33 25.9492 105.924 26.041 105.438 26.041L105.444 26.0439ZM105.45 25.8144C105.89 25.8144 106.256 25.7369 106.547 25.5791C106.839 25.4213 107.059 25.1688 107.202 24.8188C107.345 24.4688 107.419 24.0097 107.419 23.4388C107.419 22.8678 107.353 22.4231 107.219 22.0702C107.085 21.7173 106.879 21.4591 106.599 21.2955C106.319 21.132 105.961 21.0488 105.524 21.0488C105.412 21.0488 105.298 21.0545 105.175 21.0631C105.052 21.0718 104.932 21.0861 104.809 21.1062V25.7828C104.924 25.7972 105.032 25.8058 105.135 25.8115C105.238 25.8172 105.341 25.8172 105.447 25.8172L105.45 25.8144Z" fill="#231F20"/>
</g>
</g>
</g>
<defs>
<linearGradient id="paint0_linear_2_356" x1="16.1035" y1="0.635254" x2="16.1035" y2="31.1739" gradientUnits="userSpaceOnUse">
<stop stop-color="#6D6BED"/>
<stop offset="0.08" stop-color="#6570EC"/>
<stop offset="0.21" stop-color="#4F7DEC"/>
<stop offset="0.36" stop-color="#2B94EB"/>
<stop offset="0.53" stop-color="#00B0EA"/>
<stop offset="1" stop-color="#00CFCC"/>
</linearGradient>
<linearGradient id="paint1_linear_2_356" x1="39.0799" y1="10.8895" x2="160.631" y2="10.8895" gradientUnits="userSpaceOnUse">
<stop stop-color="#6D6BED"/>
<stop offset="0.08" stop-color="#6570EC"/>
<stop offset="0.21" stop-color="#4F7DEC"/>
<stop offset="0.36" stop-color="#2B94EB"/>
<stop offset="0.53" stop-color="#00B0EA"/>
<stop offset="1" stop-color="#00CFCC"/>
</linearGradient>
<clipPath id="clip0_2_356">
<rect width="159.741" height="30.5387" fill="white" transform="translate(0.890747 0.635254)"/>
</clipPath>
</defs>
</svg>
